<svg width="28" height="28" fill="none" viewBox="0 0 26 26"><path fill="#0040ff" fill-rule="evenodd" d="M13 0c7.18 0 13 5.82 13 13 0 1.16-.152 2.283-.436 3.352L18.238 4.256h-.009a3.68 3.68 0 0 0-3.08-1.663 3.68 3.68 0 0 0-3.08 1.663h-.01l-.09.16-.052.092-8.03 14.17a3.67 3.67 0 0 0-.5 1.854c0 .577.133 1.123.37 1.61A12.96 12.96 0 0 1 0 13C0 5.82 5.82 0 13 0M6.278 24.13q.383.084.792.085a3.683 3.683 0 0 0 3.216-5.48h.002l-1.795-3.106a3.502 3.502 0 1 1 6.065-3.502l6.33 10.729.003-.001q.099.16.214.31A12.95 12.95 0 0 1 13 26c-2.46 0-4.76-.683-6.722-1.87" clip-rule="evenodd"/></svg>