<svg xmlns="http://www.w3.org/2000/svg" width="240" height="120" fill="none" viewBox="0 0 240 120"><circle cx="60" cy="60" r="50" fill="#fff"/><path fill="#1a1a2e" d="M30 60c0-20 16-36 36-36s36 16 36 36c0 10-4 19-10 26h-4V75h-6c-4 0-7-3-7-7s3-7 7-7h6v-6h-6c-8 0-15 7-15 15s7 15 15 15h6v5c-6 3-13 6-21 6-20 0-37-17-37-36"/><circle cx="45" cy="45" r="2" fill="#ff8c00"/><circle cx="55" cy="50" r="1.5" fill="#15728e"/><circle cx="48" cy="55" r="1" fill="#ff8c00"/><path stroke="#15728e" d="m45 45 10 5"/><path stroke="#ff8c00" d="m55 50-7 5"/><path fill="#15728e" d="M65 40h8v2h-8z"/><path fill="#ff8c00" d="M65 45h6v2h-6z"/><path fill="#15728e" d="M65 50h10v2H65z"/><text x="130" y="45" fill="#fff" font-family="Arial, sans-serif" font-size="28" font-weight="bold">MARKET</text><text x="130" y="70" fill="#fff" font-family="Arial, sans-serif" font-size="32" font-weight="bold">INTELLIGENCE</text><text x="130" y="95" fill="#fff" font-family="Arial, sans-serif" font-size="32" font-weight="bold">PLATFORM</text><text x="60" y="110" fill="#888" font-family="Arial, sans-serif" font-size="10" text-anchor="middle">POWERED BY</text><text x="30" y="125" fill="#fff" font-family="Arial, sans-serif" font-size="14" font-weight="bold">ZINC</text><text x="70" y="125" fill="#ff8c00" font-family="Arial, sans-serif" font-size="14" font-weight="bold">FUSION</text></svg>