<svg width="148" height="40" viewBox="0 0 148 40" fill="none" xmlns="http://www.w3.org/2000/svg">
<g clip-path="url(#clip0_1932_33762)">
<path d="M8.02471e-06 13.1155V5.25311C-0.00105125 4.85668 0.102771 4.46521 0.303659 4.10818C0.504547 3.75114 0.797265 3.43783 1.15978 3.19185C1.51956 2.944 1.94063 2.76993 2.39083 2.68295C2.84103 2.59597 3.30846 2.59837 3.75742 2.68997C5.18729 3.01824 6.50616 3.63231 7.60599 4.48188C8.70582 5.33146 9.55534 6.39239 10.085 7.57776C12.7748 6.94221 15.5468 6.59795 18.3363 6.55302C21.1258 6.59795 23.8978 6.94221 26.5876 7.57776C27.1176 6.39188 27.9678 5.33062 29.0684 4.481C30.1691 3.63138 31.489 3.01759 32.9197 2.68997C33.3689 2.60105 33.8356 2.60019 34.2852 2.68746C34.7348 2.77472 35.1556 2.94786 35.5163 3.19397C35.877 3.44008 36.1683 3.75282 36.3685 4.10889C36.5687 4.46497 36.6727 4.85519 36.6726 5.25049V13.1129C34.1524 13.166 31.6709 13.6563 29.3778 14.5543C26.441 15.6273 23.9564 17.4437 22.2562 19.7607C20.5561 22.0777 19.7216 24.7846 19.8643 27.5194C19.8643 27.8669 19.7033 28.2002 19.4168 28.446C19.1302 28.6917 18.7415 28.8298 18.3363 28.8298C17.931 28.8298 17.5424 28.6917 17.2558 28.446C16.9693 28.2002 16.8083 27.8669 16.8083 27.5194C16.9522 24.7834 16.1184 22.075 14.4182 19.7565C12.718 17.4381 10.2327 15.6203 7.29479 14.5465C5.00053 13.6527 2.51922 13.1659 8.02471e-06 13.1155ZM30.5605 17.0362C30.2875 18.1332 29.5882 19.1181 28.5771 19.8297C27.5661 20.5413 26.3032 20.9373 24.9954 20.953C23.5614 22.9175 22.8392 25.2027 22.9204 27.5194C22.9204 28.562 22.4374 29.5619 21.5777 30.2992C20.718 31.0364 19.5521 31.4506 18.3363 31.4506C17.1205 31.4506 15.9545 31.0364 15.0949 30.2992C14.2352 29.5619 13.7522 28.562 13.7522 27.5194C13.8334 25.2027 13.1112 22.9175 11.6772 20.953C10.3693 20.9373 9.1065 20.5413 8.09546 19.8297C7.08442 19.1181 6.38512 18.1332 6.1121 17.0362C4.19953 16.2501 2.11934 15.8086 8.02471e-06 15.7389C0.0480666 19.4945 1.81513 23.0834 4.92024 25.732L12.0362 31.8345C13.713 33.2559 15.9756 34.0531 18.3332 34.0531C20.6909 34.0531 22.9535 33.2559 24.6302 31.8345L31.7462 25.732C34.8536 23.0843 36.6229 19.4952 36.6726 15.7389C34.5532 15.8086 32.473 16.2501 30.5605 17.0362Z" fill="url(#paint0_linear_1932_33762)"/>
</g>
<path d="M56.3186 10.5445V13.2085H49.4582V17.4285H54.7154V20.0453H49.4582V27H46.1576V10.5445H56.3186ZM61.9595 15.9668C62.3838 15.2753 62.9339 14.733 63.6097 14.3401C64.3013 13.9472 65.0871 13.7507 65.9673 13.7507V17.2163H65.095C64.0577 17.2163 63.2718 17.4599 62.7375 17.9471C62.2188 18.4343 61.9595 19.283 61.9595 20.4932V27H58.6589V13.9393H61.9595V15.9668ZM73.9898 27.2122C72.7325 27.2122 71.6009 26.9371 70.595 26.387C69.5891 25.8212 68.7954 25.0275 68.2139 24.0059C67.6481 22.9844 67.3652 21.8056 67.3652 20.4697C67.3652 19.1337 67.656 17.955 68.2375 16.9334C68.8347 15.9118 69.6441 15.1259 70.6657 14.5759C71.6873 14.0101 72.8268 13.7272 74.0841 13.7272C75.3415 13.7272 76.481 14.0101 77.5025 14.5759C78.5241 15.1259 79.3257 15.9118 79.9072 16.9334C80.5045 17.955 80.8031 19.1337 80.8031 20.4697C80.8031 21.8056 80.4966 22.9844 79.8836 24.0059C79.2864 25.0275 78.4691 25.8212 77.4318 26.387C76.4102 26.9371 75.2629 27.2122 73.9898 27.2122ZM73.9898 24.336C74.5871 24.336 75.145 24.1945 75.6637 23.9116C76.1981 23.613 76.6224 23.173 76.9367 22.5914C77.2511 22.0099 77.4082 21.3027 77.4082 20.4697C77.4082 19.228 77.0782 18.2772 76.4181 17.6171C75.7737 16.9412 74.98 16.6033 74.037 16.6033C73.094 16.6033 72.3003 16.9412 71.6559 17.6171C71.0272 18.2772 70.7129 19.228 70.7129 20.4697C70.7129 21.7113 71.0194 22.67 71.6323 23.3458C72.261 24.0059 73.0468 24.336 73.9898 24.336ZM90.4382 27L87.7506 22.9451L85.3695 27H81.8332L86.1003 20.4461L81.7861 13.9393H85.5109L88.1749 17.9707L90.5796 13.9393H94.1159L89.8252 20.4461L94.163 27H90.4382Z" fill="#9A9AAF"/>
<defs>
<linearGradient id="paint0_linear_1932_33762" x1="36.6726" y1="2.61945" x2="14.3873" y2="33.426" gradientUnits="userSpaceOnUse">
<stop stop-color="#5C8FFF"/>
<stop offset="1" stop-color="#C14BFF"/>
</linearGradient>
<clipPath id="clip0_1932_33762">
<rect width="36.6726" height="31.4336" fill="white" transform="translate(0 2.61945)"/>
</clipPath>
</defs>
</svg>
